<?xml version="1.0" encoding="utf-8"?>
<!-- Generator: Adobe Illustrator 18.1.0, SVG Export Plug-In . SVG Version: 6.00 Build 0)  -->
<svg version="1.1" id="Layer_1" xmlns="http://www.w3.org/2000/svg" xmlns:xlink="http://www.w3.org/1999/xlink" x="0px" y="0px"
	 viewBox="-328.9 271 59.9 60" enable-background="new -328.9 271 59.9 60" xml:space="preserve">
<path d="M-272.9,323.4h-2.5c1.2-9.3,4.1-46.4-25.5-46.4c0,0-3.6-6.6-6.2-5.9l-0.8,3.7l-3.7-2.4c0,0-2,8.6-0.1,10.8l-3.6,4.3
	l-3.1,1.6l-0.3,4.8c0,0-5.6,10-10.1,14.5l4.4,5.1l4.7-2.6l-0.6,3.3l-0.1,2h5.8c0,0,0.9-7.3,6-10.5l9.5-0.8c0,0-2.3,6-6.7,8.6
	c-3.8,2.2-6.2,6.9-6.9,9.9h-3.4c-2.1,0-3.8,1.7-3.8,3.8c0,2.1,1.7,3.8,3.8,3.8h43.3c2.1,0,3.8-1.7,3.8-3.8
	C-269.1,325.1-270.8,323.4-272.9,323.4z"/>
</svg>
